<svg xmlns="http://www.w3.org/2000/svg" viewBox="0 0 448 512">
  <path fill="#7F52FF" d="M220.5 88.3c52.5-64.5 113.5-19.6 104.8 31.3-8.7 50.9-79.2 95.1-112.4 86.4-33.2-8.7-44.5-53.2 7.6-117.7zM321.7 32c-15.9 0-33.8 8.1-54.7 26.7-43.8 53.8-46.8 134.7 29.4 153.4s142-42.7 142-131.2c0-30.3-21-49-116.7-49zM295.2 311.1c-3.6-26.1-36.9-98.6-103.5-98.6h-.5c-66.1 0-99.4 72.5-103 98.6-3.6 26.1-1.7 52.3 5.4 77.3 7.1 25.1 19.3 48 36.3 67.8 17 19.8 37.2 35.2 59.9 45.7 22.7 10.5 47.2 16 72.1 16s49.4-5.5 72.1-16c22.7-10.5 42.9-25.9 59.9-45.7 17-19.8 29.2-42.7 36.3-67.8 7.1-25 9-51.2 5.4-77.3-3.6-26.1-36.9-98.6-103.5-98.6h-.5c-6.3 0-12.3.6-18 1.7.9 7.6 1.4 15.3 1.4 23 0 7.7-.5 15.4-1.4 23 5.7 1.1 11.7 1.7 18 1.7h.5c33.1 0 63.6 23.9 72.2 68.3 8.5 44.4-23.2 128.5-91.5 128.5s-100-84.1-91.5-128.5c8.6-44.4 39.1-68.3 72.2-68.3h.5c6.3 0 12.3-.6 18-1.7-.9-7.6-1.4-15.3-1.4-23 0-7.7.5-15.4 1.4-23-5.7-1.1-11.7-1.7-18-1.7z"/>
</svg>
