<svg xmlns="http://www.w3.org/2000/svg" viewBox="0 0 448 512">
  <path fill="#CC342D" d="M331.8 192.7l45.4-28.4c-11.3-18.1-25.6-34-42.3-46.2L311.9 144c-11.9-8.9-26.3-13.9-41.3-13.9-38.3 0-69.3 31-69.3 69.3 0 38.3 31 69.3 69.3 69.3 38.3 0 69.3-31 69.3-69.3 0-2.3-.1-4.6-.3-6.8l-7.8.1zm-149.1-38.4c-19.7 0-37.3 9.1-48.7 23.4-10.7-23.7-34.3-40.1-61.8-40.1-37.5 0-67.9 30.4-67.9 67.9s30.4 67.9 67.9 67.9c27.5 0 51.1-16.4 61.8-40.1 11.4 14.2 29 23.4 48.7 23.4 34.4 0 62.3-27.9 62.3-62.3s-27.8-62.1-62.3-62.1z"/>
</svg>
