<svg xmlns="http://www.w3.org/2000/svg" viewBox="0 0 448 512">
  <path fill="#F05138" d="M448 386.2v-25.4c0-47.1-37.8-85.3-83.2-85.3-30.7 0-53.2 16.3-66.1 38.9-12.9-22.6-35.4-38.9-66.1-38.9-45.4 0-83.2 38.2-83.2 85.3v25.4h298.6zm-149.1 0v-25.4c0-24.5-16.2-42.6-39.3-42.6-23.1 0-39.3 18.1-39.3 42.6v25.4h78.6zm-149.1 0v-25.4c0-24.5-16.2-42.6-39.3-42.6-23.1 0-39.3 18.1-39.3 42.6v25.4h78.6zm-149.1 0v-25.4c0-47.1 37.8-85.3 83.2-85.3 30.7 0 53.2 16.3 66.1 38.9 12.9-22.6 35.4-38.9 66.1-38.9 45.4 0 83.2 38.2 83.2 85.3v25.4H.7z"/>
</svg>
