<svg xmlns="http://www.w3.org/2000/svg" viewBox="0 0 448 512">
  <path fill="#00ADD8" d="M290.2 254.8H257v-40.1h33.2c9.3 0 16.7 7.4 16.7 16.7v6.7c0 9.2-7.4 16.7-16.7 16.7zm-66.4 0h-33.2v-40.1h33.2c9.3 0 16.7 7.4 16.7 16.7v6.7c0 9.2-7.4 16.7-16.7 16.7zM448 80v352c0 26.5-21.5 48-48 48H48c-26.5 0-48-21.5-48-48V80c0-26.5 21.5-48 48-48h352c26.5 0 48 21.5 48 48zM242.9 240.4l25.5-88.4h-29.8l-15.7 64.6-15.7-64.6h-29.8l25.5 88.4h40zm-66.4 40.5c0 9.2 7.4 16.7 16.7 16.7h33.2V337h-33.2c-9.3 0-16.7-7.4-16.7-16.7v-39.4zm100.3 0c0 9.2 7.4 16.7 16.7 16.7h33.2V337h-33.2c-9.3 0-16.7-7.4-16.7-16.7v-39.4z"/>
</svg>
