<svg xmlns="http://www.w3.org/2000/svg" viewBox="0 0 640 512">
  <path fill="#326CE5" d="M320.2 243.8c-3.88-11.71-16.17-19.77-29.91-19.77-5.5 0-10.48 1.46-14.62 3.38-5.5 2.67-10.07 7.33-12.07 13.41-1.06 3.27-1.06 8.06-.67 13.06 1 11.06 11.06 19.46 22.13 19.46 5.16 0 10.4-1.46 15.12-4.08 6.01-3.4 10.08-9.3 11.68-15.65 1.01-4.01 1.01-7.81-.66-9.81zM331.24 243.84c-1.33 5.4-1.33 11.06 0 16.12 1.33 5.4 4 10.14 7.34 14.16 1.73 2.6 3.6 4.06 5.73 6.06.67.67 1.33 1.33 2.01 2.01 10.27 9.48 24.32 15.19 39.44 15.19 10.14 0 20.28-2.67 29.44-7.34 20.28-10.4 34.84-31.75 34.84-56.08 0-5.4-.67-10.47-2.01-15.19-3.33-15.19-11.4-28.24-22.46-38.05-7.34-6.4-16.18-10.81-25.65-13.06-9.47-2.4-19.54-2-28.74.67-4.67 1.33-9.21 3.33-13.41 6.01-2.67 1.6-5.33 3.6-7.34 5.73-5.07 5.07-9.14 11.07-11.74 17.42-1.33 4.01-2.01 8.41-2.01 12.81-.01 4.67.66 9.34 2 13.87l-3.44-.67c.67-2.67 1.34-5.33 1.34-8.67 0-3.6-.67-7.01-1.34-10.14-1.33-6.67-4.01-12.81-7.34-18.15-2-3.33-4.67-6.4-7.34-9.07-5.4-5.4-11.4-9.4-18.14-12.14-6.67-2.67-13.74-4-21.08-4-10.14 0-20.28 2.67-29.44 8.07-6.67 4.01-12.81 9.41-17.48 16.18-4.67 6.67-8.07 14.14-9.41 22.46-1.33 8.67-.67 17.42 2.01 25.65 1.33 4.01 3.33 8.01 6.01 11.74 1.33 2 2.67 4.01 4.67 5.73 5.07 5.07 11.07 9.07 18.15 11.74 6.67 2.67 14.11 4.07 21.75 4.07 10.8 0 21.15-2.67 30.29-8.07 9.07-5.07 16.84-12.81 21.75-22.15l3.74 1.34c-5.4 10.8-13.47 19.46-23.88 25.32-10.4 6.01-22.15 9.34-34.3 9.34-8.67 0-17.41-1.67-25.32-5.07-8.67-3.33-16.18-8.67-22.82-15.19-6.67-6.67-11.74-14.51-15.07-23.15-3.33-8.67-4.67-18.15-4.67-27.55 0-10.14 2.01-19.88 6.01-29.28 4.01-9.41 10.14-17.48 17.48-24.32 7.34-6.67 16.18-12.14 25.99-15.47 9.74-3.33 20.14-5.07 30.29-5.07 8.67 0 17.34 1.67 25.32 4.67 8.01 3.33 15.19 8.01 21.21 14.14 6.01 6.01 10.8 13.41 14.14 21.75 3.33 8.01 5.07 16.85 5.07 25.99 0 13.06-3.33 25.32-9.41 36.38-6.01 11.08-14.84 20.15-25.65 26.16-10.8 6.01-23.15 9.34-35.97 9.34-9.41 0-18.15-1.67-26.16-5.07-8.01-3.33-15.19-8.01-21.21-14.14-6.01-6.01-10.8-13.41-14.14-21.75-3.33-8.01-5.07-16.85-5.07-25.99 0-2.67.33-5.4.67-8.01.67-2.67 1.33-5.33 2.33-8.01 2-5.33 5.07-10.14 8.67-14.51 3.6-4.4 8.01-8.01 12.81-10.8 4.67-2.67 10.14-4.67 15.47-6.01 5.4-1.33 10.8-1.67 16.18-1.33 10.8.67 21.21 4.67 29.88 11.07 8.67 6.4 15.19 15.19 18.82 25.32l-3.74.67z"/>
</svg>
