<svg xmlns="http://www.w3.org/2000/svg" viewBox="0 0 512 512">
  <path fill="#3178C6" d="M233.23 196.02L247.97 192.23L247.97 303.58L233.23 299.77L233.23 196.02ZM232.5 303.58L232.5 196.02L217.77 192.23L217.77 299.77L232.5 303.58ZM215.83 196.02L215.83 303.58L200.33 307.4L200.33 192.23L215.83 196.02ZM264.03 299.77L264.03 192.23L279.53 196.02L279.53 303.58L264.03 299.77ZM281.47 303.58L281.47 196.02L296.97 192.23L296.97 299.77L281.47 303.58ZM311.67 196.02L311.67 303.58L296.97 307.4L296.97 192.23L311.67 196.02Z"/>
  <rect x="128" y="128" width="256" height="256" rx="16" fill="none" stroke="#3178C6" stroke-width="16"/>
</svg>
